<svg version="1" xmlns="http://www.w3.org/2000/svg" width="933.333" height="933.333" viewBox="0 0 700.000000 700.000000"><path d="M313 1.6c-63.2 6.7-122.1 29.8-172.7 67.8C70.3 121.9 22.5 197.9 6.1 283 1.2 308.4.5 316 .5 350c0 34.7.7 41.8 6.1 69.5 9.2 46.2 28.9 92.1 56.7 131.7 22.6 32.2 52.8 62.6 84.1 84.5 48.2 33.9 98.2 53.4 158.7 62 17.7 2.5 70.1 2.5 87.8 0 42.3-6 76.8-16.5 112.1-34.2 69.3-34.6 123.4-88.8 157.5-158 18.6-37.8 27.6-66.8 34.2-111 2.5-17.2 2.6-71.6 0-89-7.1-48.1-20.7-89.1-42.2-127C598.7 78.4 499.6 13.3 385.8 1.5c-18-1.8-55.2-1.8-72.8.1zm127.2 153.7c3.4 1.7 7.6 4.9 10.5 8.1 3.3 3.7 21.4 34.2 56.3 94.8l51.5 89.3v13L508.6 447c-27.4 47.6-51.7 89.3-54 92.8-4.5 6.9-12.8 13.4-19.6 15.2-2.6.7-35.4.9-97.7.8l-93.9-.3-7.6-3.8c-5.3-2.6-9.1-5.3-12.5-9.1-3.5-4-15.2-24.3-44.1-77.1-41.9-76.1-41.6-75.6-35.4-77.2 1.5-.4 15.5-.7 31.2-.8 27.7 0 28.6.1 33.6 2.3 2.8 1.3 6.7 4 8.7 6 1.9 2.1 13 20.9 25.1 42.7 23.4 42.1 26.1 46 34.8 48.4 3.2.9 20.4 1.1 65.3.9 68-.3 64.3 0 71.7-7.4 2.1-2 12.6-20.3 26.9-46.5 12.9-23.7 23.6-43.5 23.8-44.1.2-.6-10.7-.8-31-.6-35.7.5-37.4.8-45.6 8.3-2.7 2.3-6.8 7.1-9.2 10.7-4.6 6.8-8.7 10.3-14.2 11.8-1.9.6-13.5 1-26 1-34.7 0-33.7.7-53.3-36-17.7-33.2-17.8-28.8 1-63.5 11.7-21.7 14.7-26.5 18.2-29.2 6.2-4.7 12-5.5 37.5-5.1 20.4.3 22.5.5 26.2 2.5 4.6 2.4 8.2 6.1 11.8 12 3.3 5.3 9.2 11 13.8 13.4 2 1 6.5 2.3 10 2.9 6.3 1 60.9 1.5 60.9.5 0-1.3-46.5-86.4-48.9-89.5-1.5-1.9-5.4-4.9-8.6-6.5l-6-3H278.4l-4.8 2.5c-2.7 1.4-6.1 4.1-7.6 6-1.6 1.9-12.4 20.8-24.1 42-22.9 41.5-25.6 45.4-34.5 48.4-7 2.4-63.4 2.4-65.8 0-.9-.8-1.6-2.2-1.6-3 0-.8 17.9-34 39.7-73.7 33.3-60.6 40.6-73 44.9-77.3 5.3-5.4 12.7-9.8 19.1-11.3 2.1-.5 45.1-.8 97.3-.8l93.5.2 5.7 2.8z"/></svg>