<svg xmlns="http://www.w3.org/2000/svg" xmlns:xlink="http://www.w3.org/1999/xlink" width="733" height="121" viewBox="0 0 733 121"><defs><style>.cls-1{fill:url(#linear-gradient);}.cls-2{fill:#fff;}.cls-3{fill:#8c1ac0;}.cls-4{fill:#e00782;}</style><linearGradient id="linear-gradient" x1="22.67" y1="108.16" x2="98.02" y2="13.22" gradientUnits="userSpaceOnUse"><stop offset="0" stop-color="#8c1ac0"/><stop offset="1" stop-color="#e00782"/></linearGradient></defs><g id="Layer_2" data-name="Layer 2"><circle class="cls-1" cx="60.5" cy="60.5" r="60.5"/><path class="cls-2" d="M78.77,29.17a6.09,6.09,0,0,0-5.26-3H44A7.39,7.39,0,0,0,37.48,30L24.28,54a1,1,0,0,0,.86,1.46l8.88,0a5,5,0,0,0,4.44-2.6l7.09-12.78A4.12,4.12,0,0,1,49.14,38H68.49a4.41,4.41,0,0,1,3.88,2.32l8,14.78L70.64,55A5.5,5.5,0,0,1,66,52.44l-.63-1a3.83,3.83,0,0,0-3.27-1.83l-6.94,0a4.11,4.11,0,0,0-3.66,2.19l-4.27,8a3.05,3.05,0,0,0,0,2.82l4.27,8a4.15,4.15,0,0,0,3.66,2.19l6.94,0A3.87,3.87,0,0,0,65.36,71l.63-1a5.51,5.51,0,0,1,4.65-2.61l9.69-.06L72.37,82a4.41,4.41,0,0,1-3.88,2.32H49.14a4.1,4.1,0,0,1-3.59-2.11L38.46,69.47A5,5,0,0,0,34,66.87l-8.88.06a1,1,0,0,0-.86,1.46l13.2,24A7.4,7.4,0,0,0,44,96.23H73.51a6.07,6.07,0,0,0,5.26-3L96.29,62.88a3.4,3.4,0,0,0,0-3.38Z"/><path class="cls-3" d="M179.56,28.8V49.55a17.91,17.91,0,0,0-6.75-5.43,20.05,20.05,0,0,0-8.62-1.9,17,17,0,0,0-13,5.3,18.4,18.4,0,0,0-5,13.16,17.65,17.65,0,0,0,5.05,13q5,5.08,13.18,5.08a19.19,19.19,0,0,0,8.31-1.9,20,20,0,0,0,6.79-5.16V92.47q-10.19,3.09-15.46,3.09a36.7,36.7,0,0,1-25.29-9.8Q128,76.13,128,60.59a33.45,33.45,0,0,1,9.92-24.37,36.49,36.49,0,0,1,11.79-7.91,35.36,35.36,0,0,1,13.85-2.87A42.17,42.17,0,0,1,179.56,28.8Z"/><path class="cls-3" d="M207.79,61.82,183,27.21h21l12.6,18.1,12.6-18.1h21L225.3,61.82v32H207.79Z"/><path class="cls-3" d="M254.16,93.79V27.21H281q11.34,0,17.92,5.43t6.56,16.47q0,22.61-23.85,22.61h-9.92V93.79Zm17.52-52.63v16.6h2.95c1.66,0,2.93,0,3.79,0a18.62,18.62,0,0,0,3.31-.49,7.17,7.17,0,0,0,3-1.23,6.77,6.77,0,0,0,1.75-2.39,9.28,9.28,0,0,0,.75-4,10.24,10.24,0,0,0-.71-4.11,7.22,7.22,0,0,0-1.7-2.52,6.26,6.26,0,0,0-2.9-1.28,25.1,25.1,0,0,0-3.31-.48c-.92-.06-2.25-.09-4-.09Z"/><path class="cls-3" d="M348.07,66.5l21.18,27.29h-21.8L330.92,68.18h-.18V93.79H313.23V27.21h26.18q10.53,0,17,5.12t6.44,15.37a20.11,20.11,0,0,1-3.89,12.36A16.57,16.57,0,0,1,348.07,66.5Zm-17.33-26V57.06h1.7q12.15,0,12.15-8.3t-12.15-8.31Z"/><path class="cls-3" d="M414.91,27.21h17.51V64.65a61,61,0,0,1-1.29,13.64,19.93,19.93,0,0,1-5.77,9.85q-7.59,7.42-22.34,7.42t-22.33-7.42a19.93,19.93,0,0,1-5.77-9.85,61,61,0,0,1-1.29-13.64V27.21h17.51V62.27c0,2.12.05,3.88.14,5.29a25.23,25.23,0,0,0,.8,4.77A11.66,11.66,0,0,0,394,76.57a9.29,9.29,0,0,0,3.53,2.7,14.48,14.48,0,0,0,11.07,0,9.37,9.37,0,0,0,3.53-2.7A11.66,11.66,0,0,0,414,72.33a26.14,26.14,0,0,0,.81-4.77c.08-1.41.13-3.17.13-5.29Z"/><path class="cls-3" d="M487.46,30.92l-7,13.42a17.91,17.91,0,0,0-11.61-4.42,9.43,9.43,0,0,0-5.14,1.51,4.6,4.6,0,0,0-2.37,4.06,4.29,4.29,0,0,0,1.48,3.18,9.07,9.07,0,0,0,2.77,1.94c.86.35,2,.77,3.53,1.24l4.46,1.32q7.86,2.3,12.24,6.49t4.38,11.7q0,12.11-7,17.93-7.5,6.27-19.12,6.27A40.82,40.82,0,0,1,440.46,88L448,74q7.95,6.88,15.55,6.89a10.34,10.34,0,0,0,5.94-1.72,5.64,5.64,0,0,0,2.54-5q0-4.5-8.48-7l-2.15-.62a64.87,64.87,0,0,1-7.59-2.47,25.37,25.37,0,0,1-5.54-3.22,11.28,11.28,0,0,1-3.93-5.26,22.93,22.93,0,0,1-1.17-7.86q0-10.06,6.53-16.2t16.71-6.14a43.16,43.16,0,0,1,10.85,1.5A43.88,43.88,0,0,1,487.46,30.92Z"/><path class="cls-4" d="M546.7,28.8V49.55A17.8,17.8,0,0,0,540,44.12a20.13,20.13,0,0,0-8.63-1.9,17,17,0,0,0-13,5.3,18.41,18.41,0,0,0-5,13.16,17.69,17.69,0,0,0,5,13q5.05,5.08,13.18,5.08a19.19,19.19,0,0,0,8.31-1.9,19.89,19.89,0,0,0,6.79-5.16V92.47q-10.19,3.09-15.46,3.09A36.65,36.65,0,0,1,506,85.76q-10.81-9.63-10.81-25.17a33.44,33.44,0,0,1,9.91-24.37,36.54,36.54,0,0,1,11.8-7.91,35.33,35.33,0,0,1,13.85-2.87A42.12,42.12,0,0,1,546.7,28.8Z"/><path class="cls-4" d="M573.15,29.28a41,41,0,0,1,36.46,0,35.57,35.57,0,0,1,13.76,12.23,31.46,31.46,0,0,1,5.27,17.75q0,16.17-10.5,26.45T591.38,96q-16.26,0-26.76-10.29t-10.5-26.45a31.38,31.38,0,0,1,5.27-17.75A35.43,35.43,0,0,1,573.15,29.28Zm31.63,17.8a19.6,19.6,0,0,0-26.81,0,16.38,16.38,0,0,0-5.62,12.27,19.52,19.52,0,0,0,5.54,14.18,18.84,18.84,0,0,0,27,0,19.56,19.56,0,0,0,5.54-14.18A16.39,16.39,0,0,0,604.78,47.08Z"/><path class="cls-4" d="M654.28,27.21V93.79H636.77V27.21Z"/><path class="cls-4" d="M665.72,93.79V27.21h17.51l32.08,40.71h.18V27.21H733V93.79H715.49L683.41,53h-.18v40.8Z"/></g></svg>